<?xml version="1.0" standalone="no"?>
<!DOCTYPE svg PUBLIC "-//W3C//DTD SVG 20010904//EN"
 "http://www.w3.org/TR/2001/REC-SVG-20010904/DTD/svg10.dtd">
<svg version="1.0" xmlns="http://www.w3.org/2000/svg"
 width="762.000000pt" height="479.000000pt" viewBox="0 0 762.000000 479.000000"
 preserveAspectRatio="xMidYMid meet">
<metadata>
Created by potrace 1.16, written by Peter Selinger 2001-2019
</metadata>
<g transform="translate(0.000000,479.000000) scale(0.100000,-0.100000)"
fill="#000000" stroke="none">
<path d="M3470 3833 c-390 -27 -781 -103 -1095 -213 -140 -49 -130 -35 -145
-206 -15 -173 -8 -499 14 -672 17 -124 45 -280 55 -300 5 -8 27 4 71 41 100
83 95 69 76 210 -34 251 -45 520 -27 682 l6 59 90 29 c188 59 481 121 670 143
41 4 77 17 115 39 123 73 244 119 423 161 56 13 73 20 60 25 -17 7 -223 9
-313 2z m110 -24 c-97 -11 -225 -52 -298 -96 -45 -27 -77 -38 -152 -49 -247
-37 -533 -104 -702 -166 -52 -19 -58 -24 -65 -57 -4 -20 -8 -142 -7 -271 0
-223 9 -351 36 -503 l11 -68 -48 -49 c-27 -27 -50 -48 -52 -46 -2 2 -10 40
-18 84 -44 252 -59 495 -45 730 15 250 12 239 90 269 338 128 882 230 1225
230 l100 0 -75 -8z"/>
<path d="M4040 3832 c0 -4 33 -18 73 -31 104 -33 207 -85 280 -140 60 -45 69
-48 158 -60 189 -25 522 -105 672 -161 l55 -21 7 -107 c28 -406 -64 -959 -225
-1357 -28 -67 -50 -124 -50 -126 0 -2 43 -3 96 -1 l96 3 25 56 c64 147 139
397 182 608 53 262 78 626 61 880 -6 88 -13 167 -16 177 -15 51 -520 192 -874
242 -190 28 -540 52 -540 38z m275 -27 c305 -15 751 -109 1051 -220 l71 -26 7
-72 c3 -40 9 -138 13 -219 l6 -148 -56 -25 c-32 -13 -57 -31 -57 -38 0 -28
-30 -325 -34 -338 -2 -8 -7 -27 -10 -42 -4 -15 -11 -25 -16 -22 -6 3 -10 1
-10 -4 0 -6 5 -11 10 -11 6 0 10 -5 10 -11 0 -5 -4 -8 -9 -5 -5 3 -11 -1 -15
-9 -3 -8 -1 -15 5 -15 32 0 -62 -408 -143 -618 -24 -65 -38 -86 -60 -98 -15
-8 -28 -10 -28 -5 0 5 20 60 44 123 53 134 116 348 150 508 47 218 60 364 61
651 0 216 3 269 14 283 19 23 12 27 -99 62 -238 74 -523 142 -675 159 -46 5
-75 17 -122 47 -70 45 -137 72 -203 83 -25 4 -52 11 -60 16 -11 7 -8 8 10 5
14 -3 79 -8 145 -11z"/>
<path d="M3950 3756 c0 -2 29 -18 65 -35 36 -16 65 -32 65 -34 0 -3 -35 4 -77
16 -107 28 -260 28 -367 -1 -76 -20 -118 -41 -86 -43 8 0 -19 -7 -61 -15 -42
-7 -101 -23 -131 -34 -61 -23 -180 -92 -185 -107 -2 -6 26 -2 64 8 75 21 121
21 58 0 -163 -55 -353 -197 -463 -346 -41 -55 -92 -145 -92 -161 0 -4 24 15
53 42 130 122 297 221 468 278 136 46 162 45 76 -1 -137 -73 -283 -242 -373
-430 -38 -80 -114 -301 -114 -330 0 -13 10 -8 37 18 36 33 36 34 16 4 -74
-108 -285 -260 -514 -370 -248 -119 -431 -160 -711 -160 -104 0 -188 -1 -188
-3 0 -2 28 -16 63 -32 151 -70 363 -101 566 -82 235 22 361 63 676 217 116 57
255 117 309 134 157 50 349 73 441 52 25 -6 18 -9 -40 -15 -245 -27 -490 -100
-695 -208 -256 -135 -316 -164 -405 -196 -302 -109 -732 -108 -1052 1 -40 14
-73 21 -73 16 0 -15 181 -127 257 -159 42 -18 126 -44 187 -58 102 -25 128
-27 321 -27 288 1 426 30 720 156 467 199 639 252 913 284 164 19 319 19 422
-1 45 -8 84 -13 87 -10 12 12 -59 117 -139 203 -48 52 -99 113 -112 136 -36
62 -56 142 -55 216 l1 66 14 -78 c20 -113 56 -180 138 -257 175 -163 223 -216
246 -268 25 -56 18 -51 204 -140 19 -10 -6 96 -38 163 -35 71 -91 136 -181
212 l-50 43 77 -35 c121 -54 156 -73 199 -112 52 -47 71 -84 71 -139 0 -42 1
-44 26 -38 61 14 137 60 169 102 49 64 59 109 45 195 -7 39 -15 73 -17 76 -3
2 -15 -7 -28 -21 -43 -46 -128 -48 -217 -5 -52 25 -63 58 -34 102 27 42 65 55
151 54 104 0 146 -15 153 -53 l5 -29 39 43 c21 23 47 63 58 89 11 25 32 71 48
101 43 86 45 105 13 135 -36 34 -216 156 -269 183 -38 19 -42 25 -48 71 -6 49
-8 52 -76 96 -39 24 -88 54 -110 65 -36 18 -40 24 -40 58 0 59 -28 152 -62
205 -53 83 -132 136 -262 176 -59 18 -156 29 -156 17z m212 -52 c78 -30 143
-79 178 -132 30 -45 56 -110 47 -118 -2 -3 -24 5 -48 18 -30 15 -66 24 -114
26 -49 3 -76 9 -90 22 -11 10 -38 30 -60 45 -22 16 -32 25 -22 22 9 -4 17 -3
17 2 0 12 -111 57 -185 76 -32 8 -102 16 -155 16 l-95 1 50 13 c107 28 286 12
390 -34 25 -11 71 -44 102 -73 l57 -53 -24 40 -24 40 24 -20 23 -20 -11 20
c-18 34 -74 82 -132 114 -51 29 -52 30 -20 25 19 -4 61 -17 92 -30z m-349 -90
c101 -21 244 -92 293 -146 36 -40 41 -43 84 -40 51 4 108 -22 195 -87 28 -21
92 -64 142 -95 99 -61 113 -77 113 -125 0 -25 8 -35 43 -57 118 -74 265 -175
281 -193 l19 -21 -59 -2 c-32 -1 -74 -2 -91 -1 -39 0 -35 -7 22 -47 59 -40 66
-69 29 -121 -34 -49 -52 -61 -77 -47 -11 5 -59 14 -109 18 -73 7 -95 13 -124
35 -38 29 -51 64 -35 92 9 15 10 16 11 2 0 -9 6 -22 14 -29 13 -10 13 -7 3 19
-10 28 -9 33 18 61 l29 30 -25 0 c-13 0 -60 -11 -104 -25 -106 -33 -176 -33
-243 1 -65 32 -100 76 -124 157 -17 58 -18 59 -13 17 12 -98 86 -186 178 -211
52 -14 134 -6 211 21 33 11 61 20 63 20 2 0 -6 -14 -19 -30 -35 -47 -30 -95
14 -135 l36 -33 -28 -5 c-83 -17 -148 -136 -105 -193 14 -18 14 -18 8 3 -5 22
-2 21 62 -12 81 -43 168 -48 223 -15 37 23 46 6 13 -24 -11 -10 -17 -25 -14
-34 4 -15 3 -15 -6 -2 -10 13 -13 13 -26 -4 -9 -11 -15 -14 -15 -7 0 8 -13 12
-37 10 -21 -1 -45 1 -53 4 -59 24 -70 26 -82 13 -25 -24 -43 -23 -100 5 -32
16 -95 43 -140 59 -45 17 -99 41 -120 55 -21 14 -42 25 -47 25 -19 0 -81 85
-103 139 -17 44 -22 78 -22 156 -1 114 16 176 69 255 40 59 23 54 -58 -17 -92
-81 -160 -216 -173 -348 -10 -98 48 -302 79 -277 9 8 36 -15 111 -97 118 -129
159 -195 91 -147 -11 8 -51 17 -88 21 -53 6 -67 11 -67 24 0 9 5 22 11 28 8 8
8 13 0 18 -6 3 -11 3 -10 -2 1 -4 -2 -19 -6 -32 l-8 -23 -14 23 c-8 14 -12 16
-9 6 5 -15 2 -17 -14 -12 -11 4 -20 2 -20 -3 0 -6 -39 -13 -87 -16 -347 -25
-602 -92 -983 -261 -348 -153 -519 -196 -790 -197 -185 0 -360 26 -517 77
-100 33 -191 74 -133 60 186 -44 258 -57 393 -67 190 -15 336 -3 508 41 140
35 248 81 455 194 158 85 289 142 414 178 107 32 328 69 441 76 l106 6 -18 59
c-27 85 -26 225 2 314 24 78 49 130 90 190 l28 41 -64 -13 c-85 -18 -240 -76
-324 -122 -75 -41 -156 -99 -156 -113 0 -5 -4 -9 -8 -8 -5 1 -23 -12 -40 -28
l-31 -28 32 45 c149 209 307 325 522 384 l85 23 -80 8 c-96 10 -225 -5 -315
-35 -130 -43 -329 -158 -314 -181 3 -5 1 -8 -4 -7 -16 5 -115 -94 -102 -102 8
-5 7 -9 -5 -13 -11 -5 -14 -3 -9 6 5 8 2 8 -9 -2 -9 -7 -14 -18 -10 -24 3 -5
1 -7 -5 -4 -6 4 -24 -15 -41 -43 -17 -27 -33 -50 -35 -50 -14 0 51 184 99 280
85 169 176 284 291 366 92 66 162 94 297 118 l122 23 -39 13 c-28 9 -75 11
-160 7 -236 -11 -450 -97 -610 -247 -53 -49 -64 -56 -46 -30 43 62 133 151
210 209 155 116 343 182 518 185 l94 1 -44 13 c-72 22 -157 25 -243 9 -44 -8
-89 -18 -100 -22 -44 -16 22 24 75 45 127 50 298 59 463 24z m-289 -632 c-128
-67 -236 -153 -457 -365 -105 -102 -212 -202 -237 -222 -123 -103 -309 -208
-495 -280 -66 -26 -122 -49 -125 -51 -8 -8 83 8 175 31 264 67 538 252 728
493 27 34 51 62 53 62 3 0 -11 -24 -31 -52 -19 -29 -30 -55 -25 -56 6 -2 45
23 88 56 133 103 315 203 474 260 l56 21 -47 -47 c-39 -39 -51 -60 -67 -117
-20 -72 -26 -243 -12 -296 l8 -26 -48 9 c-63 12 -236 11 -317 -2 -71 -11 -250
-67 -311 -97 -22 -11 -104 -54 -184 -95 -174 -92 -258 -126 -410 -167 -189
-50 -363 -62 -586 -40 -164 16 -199 27 -94 28 282 4 530 65 780 192 201 103
298 177 505 385 248 249 367 334 553 395 124 40 130 35 26 -19z m445 -62 c-39
-123 -12 -309 53 -367 21 -18 21 -18 9 4 -21 40 -11 35 29 -16 23 -28 75 -79
118 -114 114 -91 212 -189 217 -214 2 -13 0 -23 -4 -23 -5 0 -37 26 -72 58
-35 32 -100 85 -144 118 -43 32 -108 87 -143 121 -36 35 -68 60 -72 58 -5 -3
-17 16 -27 42 -13 36 -18 75 -18 158 0 105 2 114 33 178 19 38 36 67 38 65 2
-2 -6 -33 -17 -68z"/>
<path d="M3822 3473 c-43 -21 -68 -58 -87 -129 -12 -47 -13 -68 -4 -106 13
-55 64 -120 111 -139 l33 -14 -30 -6 c-22 -5 -14 -7 30 -7 58 -1 59 -1 30 12
-17 7 -37 21 -45 32 -15 18 -14 18 12 1 41 -26 43 -21 8 19 -55 63 -89 168
-71 217 5 14 20 35 32 46 46 42 155 20 247 -49 57 -44 63 -43 30 3 -13 17 -16
27 -7 22 7 -4 -2 9 -21 30 -70 76 -191 106 -268 68z"/>
<path d="M2930 3069 c-89 -51 -195 -167 -290 -318 -46 -74 -110 -167 -142
-207 -94 -117 -244 -237 -383 -306 -44 -22 -82 -42 -84 -44 -12 -11 12 -12 74
-3 237 33 515 184 631 342 60 81 71 104 134 277 49 137 94 233 128 273 24 28
-5 22 -68 -14z m-12 -46 c-46 -50 -77 -106 -126 -229 -26 -67 -63 -147 -82
-179 -67 -111 -223 -233 -415 -325 -158 -76 -188 -83 -90 -22 106 67 250 194
318 281 30 38 83 116 118 173 84 138 149 219 223 279 66 54 95 65 54 22z"/>
<path d="M3755 2039 c-302 -28 -576 -99 -1000 -259 -351 -133 -452 -154 -725
-152 -104 0 -224 7 -272 14 -49 8 -88 12 -88 10 0 -10 38 -35 102 -66 68 -34
182 -61 298 -71 l65 -6 0 -37 c0 -55 21 -62 212 -62 l162 0 30 43 c76 109 154
152 276 151 93 0 149 -21 213 -79 90 -81 128 -238 84 -352 l-20 -53 934 0 933
0 -16 43 c-10 25 -16 74 -17 122 -1 97 29 171 93 233 66 64 122 86 216 86 85
0 129 -14 197 -61 65 -45 128 -171 128 -258 0 -30 -19 -111 -35 -149 -8 -18 0
-18 196 -14 221 4 257 12 299 66 28 35 25 48 -12 58 -21 6 -34 17 -36 30 -5
32 39 87 76 96 33 9 77 62 66 80 -9 15 -214 113 -334 161 -149 59 -319 110
-454 136 -83 16 -146 21 -281 21 l-174 0 -143 69 c-198 95 -431 182 -447 166
-2 -3 -9 2 -15 10 -22 29 -309 43 -511 24z m483 -25 c16 -4 20 -10 13 -18 -8
-9 18 -24 97 -55 59 -24 177 -80 262 -125 85 -44 160 -80 165 -79 6 1 71 7
145 12 241 16 432 -9 674 -90 149 -49 336 -128 336 -141 0 -5 5 -6 10 -3 6 3
10 2 10 -4 0 -6 7 -7 17 -4 12 5 14 3 8 -7 -6 -10 -4 -12 9 -7 9 4 15 3 12 -2
-8 -12 22 -23 37 -14 7 3 9 3 5 -2 -4 -4 0 -13 9 -20 12 -9 -38 -11 -223 -8
l-239 4 -20 27 c-79 103 -146 150 -246 172 -88 20 -158 9 -247 -36 -66 -33
-85 -49 -130 -109 -33 -45 -59 -70 -72 -70 -15 0 -31 -23 -66 -93 -26 -52 -56
-99 -68 -106 -17 -11 -98 -12 -421 -5 -532 12 -702 22 -746 44 -51 27 -95 62
-125 103 -23 31 -17 27 33 -19 46 -43 74 -59 110 -68 58 -13 390 -28 814 -37
l314 -6 14 23 c21 35 83 144 124 220 l36 66 -121 6 c-67 4 -207 6 -312 6
l-191 -1 240 -29 c132 -15 259 -28 283 -28 24 -1 42 -6 42 -12 0 -18 -101
-207 -120 -224 -14 -13 -56 -14 -336 -5 -579 19 -716 26 -754 42 -20 9 -55 37
-79 64 -51 58 -127 179 -136 216 -6 23 -3 27 23 33 44 9 102 -4 102 -24 1 -9
8 -29 16 -46 8 -16 12 -21 8 -10 -3 11 -8 32 -11 48 l-5 27 108 1 109 2 -107
15 c-84 12 -108 19 -109 31 -1 12 -2 11 -6 -2 -3 -12 -10 -16 -20 -12 -37 14
-163 18 -178 5 -33 -27 -16 -95 47 -187 l29 -43 -123 0 -123 0 -45 68 c-128
189 -403 218 -564 58 -23 -22 -48 -51 -56 -64 -14 -22 -22 -23 -177 -27 -90
-3 -163 -3 -163 0 0 3 9 24 21 46 11 23 19 42 17 44 -2 2 -66 8 -143 14 -77 7
-175 19 -217 29 l-77 17 252 0 c329 0 370 8 776 160 391 145 648 213 936 245
87 10 476 5 513 -6z"/>
<path d="M3710 1975 c-257 -29 -580 -112 -620 -160 -17 -21 -1 -25 148 -41
445 -48 772 -68 1035 -62 143 3 158 1 163 -14 6 -21 56 -25 72 -5 6 6 10 24 9
38 -2 25 -6 27 -56 33 -39 5 -57 3 -63 -6 -5 -9 -8 -6 -8 9 0 44 89 75 126 44
16 -13 21 -28 20 -57 l-1 -39 65 2 c36 1 74 3 85 4 11 1 43 -1 70 -5 l50 -6
-50 14 c-27 7 -120 50 -205 94 -182 94 -328 151 -420 163 -92 12 -285 9 -420
-6z"/>
<path d="M2715 1544 c-58 -20 -106 -64 -140 -125 -26 -47 -30 -64 -30 -129 0
-80 17 -126 70 -188 88 -105 278 -110 383 -9 99 95 114 237 37 353 -64 97
-203 140 -320 98z m219 -28 c23 -14 49 -33 57 -43 13 -17 13 -17 -11 -2 -47
29 -139 52 -186 45 -88 -12 -169 -76 -195 -153 -6 -18 -14 -33 -19 -33 -5 0
-11 -15 -13 -32 -3 -26 -4 -23 -5 13 -2 59 38 140 90 182 75 61 200 71 282 23z
m-41 -60 c39 -16 94 -77 103 -114 4 -15 12 -35 19 -45 15 -22 5 -83 -22 -128
-35 -62 -130 -107 -200 -96 -41 7 -139 98 -154 145 -41 124 47 252 174 252 26
0 62 -6 80 -14z"/>
<path d="M5124 1536 c-158 -73 -203 -290 -87 -425 105 -123 302 -122 408 2
114 133 70 343 -87 421 -70 35 -161 36 -234 2z m171 -67 c52 -15 110 -74 124
-127 7 -23 16 -42 21 -42 18 0 10 -73 -11 -118 -25 -51 -89 -97 -149 -107 -41
-7 -124 11 -115 25 3 4 -10 18 -29 30 -101 62 -101 248 1 311 61 38 98 44 158
28z"/>
<path d="M1624 1422 c52 -60 329 -172 520 -211 54 -11 100 -22 103 -24 2 -3
-31 -13 -74 -23 -43 -10 -82 -21 -86 -24 -13 -11 383 -30 445 -21 4 1 -2 22
-14 48 -15 34 -21 68 -21 125 l0 78 -256 0 c-141 0 -296 5 -346 10 -83 10
-223 39 -270 56 -20 7 -20 7 -1 -14z m205 -48 c71 -11 167 -15 364 -15 211 1
268 -2 265 -11 -6 -16 -307 -31 -448 -23 -105 7 -246 36 -288 61 -15 8 -19 13
-8 9 10 -3 62 -12 115 -21z"/>
<path d="M4628 1063 l-117 -4 -84 -82 c-135 -132 -385 -320 -516 -386 l-42
-22 -57 32 c-149 83 -341 229 -483 366 l-96 93 -97 0 c-54 0 -106 -5 -117 -11
-18 -9 -15 -15 42 -79 167 -188 485 -437 721 -565 l88 -47 105 56 c220 116
411 262 637 488 130 130 167 174 141 166 -5 -1 -61 -4 -125 -5z m77 -23 c-8
-13 -72 -30 -115 -30 -27 0 -46 -10 -82 -43 -162 -147 -206 -184 -317 -266
-123 -91 -287 -191 -311 -191 -53 0 -414 243 -530 356 -13 13 -13 14 5 8 11
-4 34 -22 50 -41 20 -22 41 -35 64 -38 20 -2 56 -22 90 -48 58 -46 219 -150
279 -181 l33 -17 102 61 c158 94 402 285 516 404 l35 36 94 0 c57 0 91 -4 87
-10z"/>
<path d="M3837 124 c-1 -1 -488 -5 -1082 -9 -594 -4 -1093 -8 -1108 -10 -15
-2 -292 -7 -615 -11 -336 -5 -570 -11 -547 -16 58 -11 2133 -35 3250 -37 523
0 1182 3 1465 8 283 6 848 14 1255 18 797 8 784 15 -55 28 -261 4 -477 9 -480
10 -3 2 -411 7 -905 10 -495 4 -962 8 -1038 9 -76 0 -139 1 -140 0z"/>
</g>
</svg>
